<mxfile host="app.diagrams.net" modified="2021-02-15T11:19:52.263Z" agent="5.0 (Windows NT 6.1; Win64; x64) AppleWebKit/537.36 (KHTML, like Gecko) Chrome/88.0.4324.150 Safari/537.36" etag="6MvUIBeBoJLSzU1rdejf" version="14.3.1" type="github">
  <diagram id="r04Feto_kE-31as4iH0w" name="Page-1">
    <mxGraphModel dx="782" dy="738" grid="1" gridSize="10" guides="1" tooltips="1" connect="1" arrows="1" fold="1" page="1" pageScale="1" pageWidth="827" pageHeight="1169" math="0" shadow="0">
      <root>
        <mxCell id="0" />
        <mxCell id="1" parent="0" />
        <mxCell id="kGJ45WNKT1iH__veShJi-8" value="" style="strokeWidth=1;shadow=0;dashed=0;align=center;html=1;shape=mxgraph.mockup.containers.browserWindow;rSize=0;strokeColor=#666666;strokeColor2=#008cff;strokeColor3=#c4c4c4;mainText=,;recursiveResize=0;" vertex="1" parent="1">
          <mxGeometry x="30" y="190" width="760" height="640" as="geometry" />
        </mxCell>
        <mxCell id="kGJ45WNKT1iH__veShJi-9" value="About blank" style="strokeWidth=1;shadow=0;dashed=0;align=center;html=1;shape=mxgraph.mockup.containers.anchor;fontSize=17;fontColor=#666666;align=left;" vertex="1" parent="kGJ45WNKT1iH__veShJi-8">
          <mxGeometry x="60" y="12" width="110" height="26" as="geometry" />
        </mxCell>
        <mxCell id="kGJ45WNKT1iH__veShJi-10" value="https://www.raccolteit" style="strokeWidth=1;shadow=0;dashed=0;align=center;html=1;shape=mxgraph.mockup.containers.anchor;rSize=0;fontSize=17;fontColor=#666666;align=left;" vertex="1" parent="kGJ45WNKT1iH__veShJi-8">
          <mxGeometry x="130" y="60" width="250" height="26" as="geometry" />
        </mxCell>
        <mxCell id="kGJ45WNKT1iH__veShJi-17" value="" style="shape=image;html=1;verticalAlign=top;verticalLabelPosition=bottom;labelBackgroundColor=#ffffff;imageAspect=0;aspect=fixed;image=https://cdn4.iconfinder.com/data/icons/basic-user-interface-elements/700/document-text-file-sheet-doc-128.png" vertex="1" parent="kGJ45WNKT1iH__veShJi-8">
          <mxGeometry x="60" y="210" width="90" height="90" as="geometry" />
        </mxCell>
        <mxCell id="kGJ45WNKT1iH__veShJi-21" value="" style="shape=image;html=1;verticalAlign=top;verticalLabelPosition=bottom;labelBackgroundColor=#ffffff;imageAspect=0;aspect=fixed;image=https://cdn4.iconfinder.com/data/icons/basic-user-interface-elements/700/document-text-file-sheet-doc-128.png" vertex="1" parent="kGJ45WNKT1iH__veShJi-8">
          <mxGeometry x="500" y="210" width="90" height="90" as="geometry" />
        </mxCell>
        <mxCell id="kGJ45WNKT1iH__veShJi-22" value="" style="shape=image;html=1;verticalAlign=top;verticalLabelPosition=bottom;labelBackgroundColor=#ffffff;imageAspect=0;aspect=fixed;image=https://cdn4.iconfinder.com/data/icons/basic-user-interface-elements/700/document-text-file-sheet-doc-128.png" vertex="1" parent="kGJ45WNKT1iH__veShJi-8">
          <mxGeometry x="60" y="430" width="90" height="90" as="geometry" />
        </mxCell>
        <mxCell id="kGJ45WNKT1iH__veShJi-23" value="" style="shape=image;html=1;verticalAlign=top;verticalLabelPosition=bottom;labelBackgroundColor=#ffffff;imageAspect=0;aspect=fixed;image=https://cdn4.iconfinder.com/data/icons/basic-user-interface-elements/700/document-text-file-sheet-doc-128.png" vertex="1" parent="kGJ45WNKT1iH__veShJi-8">
          <mxGeometry x="500" y="420" width="90" height="90" as="geometry" />
        </mxCell>
        <mxCell id="kGJ45WNKT1iH__veShJi-24" value="" style="shape=image;html=1;verticalAlign=top;verticalLabelPosition=bottom;labelBackgroundColor=#ffffff;imageAspect=0;aspect=fixed;image=https://cdn0.iconfinder.com/data/icons/file-and-folder-free-1/32/File_Files_Folder_Document_Doc_Data-29-128.png" vertex="1" parent="kGJ45WNKT1iH__veShJi-8">
          <mxGeometry x="20" y="120" width="30" height="30" as="geometry" />
        </mxCell>
        <mxCell id="kGJ45WNKT1iH__veShJi-25" value="raccolte" style="text;html=1;strokeColor=none;fillColor=none;align=center;verticalAlign=middle;whiteSpace=wrap;rounded=0;" vertex="1" parent="kGJ45WNKT1iH__veShJi-8">
          <mxGeometry x="60" y="125" width="50" height="20" as="geometry" />
        </mxCell>
        <mxCell id="kGJ45WNKT1iH__veShJi-28" value="immagini" style="text;html=1;strokeColor=none;fillColor=none;align=center;verticalAlign=middle;whiteSpace=wrap;rounded=0;" vertex="1" parent="kGJ45WNKT1iH__veShJi-8">
          <mxGeometry x="170" y="230" width="80" height="60" as="geometry" />
        </mxCell>
        <mxCell id="kGJ45WNKT1iH__veShJi-29" value="musica" style="text;html=1;strokeColor=none;fillColor=none;align=center;verticalAlign=middle;whiteSpace=wrap;rounded=0;" vertex="1" parent="kGJ45WNKT1iH__veShJi-8">
          <mxGeometry x="180" y="450" width="80" height="50" as="geometry" />
        </mxCell>
        <mxCell id="kGJ45WNKT1iH__veShJi-30" value="documenti" style="text;html=1;strokeColor=none;fillColor=none;align=center;verticalAlign=middle;whiteSpace=wrap;rounded=0;" vertex="1" parent="kGJ45WNKT1iH__veShJi-8">
          <mxGeometry x="650" y="250" width="40" height="20" as="geometry" />
        </mxCell>
        <mxCell id="kGJ45WNKT1iH__veShJi-31" value="video" style="text;html=1;strokeColor=none;fillColor=none;align=center;verticalAlign=middle;whiteSpace=wrap;rounded=0;" vertex="1" parent="kGJ45WNKT1iH__veShJi-8">
          <mxGeometry x="650" y="465" width="40" height="20" as="geometry" />
        </mxCell>
      </root>
    </mxGraphModel>
  </diagram>
</mxfile>
